<svg data-v-0dd9719b="" version="1.0" xmlns="http://www.w3.org/2000/svg" xmlns:xlink="http://www.w3.org/1999/xlink" width="100%" height="100%" viewBox="0 0 340.000000 250.000000" preserveAspectRatio="xMidYMid meet" color-interpolation-filters="sRGB" style="margin: auto;"> <rect data-v-0dd9719b="" x="0" y="0" width="100%" height="100%" fill="#fff" fill-opacity="1" class="background"></rect> <rect data-v-0dd9719b="" x="0" y="0" width="100%" height="100%" fill="url(#watermark)" fill-opacity="1" class="watermarklayer"></rect> <g data-v-0dd9719b="" fill="#333" class="icon-text-wrapper icon-svg-group iconsvg" transform="translate(46.62000274658203,95.46575355529785)"><g class="iconsvg-imagesvg" transform="translate(0,0)"><g><rect fill="#333" fill-opacity="0" stroke-width="2" x="0" y="0" width="60" height="59.06848991405534" class="image-rect"></rect> <svg x="0" y="0" width="60" height="59.06848991405534" filtersec="colorsb626640599" class="image-svg-svg primary" style="overflow: visible;"><svg xmlns="http://www.w3.org/2000/svg" viewBox="0.4385022521018982 -0.000009216904800268821 101.5615005493164 99.98497772216797"><path d="M69.3 59.41l-9.89 9.89L51 77.73 30.46 98.26A6 6 0 0 1 22 89.83L42.56 69.3 51 60.88l9.9-9.9zM102 24.28a6 6 0 0 1-1.75 4.21L77.72 51l-8.42-8.44 22.5-22.5a6 6 0 0 1 10.2 4.22z" fill="#0059cc"></path><path d="M83.64 6a5.94 5.94 0 0 1-1.74 4.21L41.08 51l-8.42-8.42 9.9-9.89L51 24.24 73.48 1.75A6 6 0 0 1 83.64 6zM32.66 59.41L12.13 79.93a6 6 0 0 1-8.42-8.42L24.24 51z" fill="#00dac7"></path><path d="M51 24.24l-8.42 8.43-22.5-22.5A6 6 0 0 1 24.28 0a5.89 5.89 0 0 1 4.2 1.75zM98.25 79.93a5.94 5.94 0 0 1-8.42 0L51 41.09l8.42-8.42 9.9 9.89 8.4 8.44 20.53 20.51a6 6 0 0 1 0 8.42z" fill="#00baec"></path><path d="M51 60.88l-8.44 8.42L1.74 28.49a6 6 0 0 1 8.43-8.43l22.49 22.5L41.08 51zM79.93 98.26a6 6 0 0 1-8.42 0L51 77.73l8.42-8.43 20.51 20.53a6 6 0 0 1 0 8.43z" fill="#00abd8"></path></svg></svg> <!----></g></g> <g transform="translate(67,13.719246864318848)"><g data-gra="path-name" fill-rule="" class="tp-name iconsvg-namesvg"><g transform="scale(1)"><g><path d="M20.12-30.38L30.23-30.72 28.69-1.67 17.46-0.64 11.46-16.2 10.52-0.34 0.88-0.34 1.65-30.72 12.36-31.24 19.78-15.81 20.12-30.38ZM32.5-30.9L52.26-30.9Q52.13-28.88 52.02-26.91 51.92-24.94 51.74-22.93L51.74-22.93 42.66-22.45 42.44-19.75 48.83-19.75 48.36-13.11 41.93-12.9 41.72-9.77 47.03-9.77 50.8-9.77Q50.67-7.41 50.53-5.09 50.39-2.76 50.29-0.43L50.29-0.43 31.82 0 32.5-30.9ZM81.05-30.68L91.64-29.74 86.63-0.04 74.46 0.21 71.84-15.17 69.23-0.9 57.06-0.47 52-29.74 62.63-30.68 64.77-12.9 67.64-30.68 76-30.68 79.34-12.68 81.05-30.68ZM109.17-30.68L119.02-30.04 111.18-0.21 100.55 0.39 90.91-29.74 101.07-30.68 105.18-13.11 109.17-30.68ZM119.88-29.57L131.28-30.17 128.92-0.99 119.88-0.51 119.88-29.57ZM132.05-30.6L155.4-30.64 155.19-21.55 148.8-21.3 147.18-0.99 138.13-0.51 138.18-20.83 131.79-20.48 132.05-30.6ZM172.29-30.68L180.64-1.84 170.02-0.47 168.73-5.31 163.84-5.31 162.77-0.47 151.85-1.54 160.37-30.08 172.29-30.68ZM164.74-11.87L167.96-11.87 166.33-19.33 164.74-11.87Z" transform="translate(-0.8799999952316284, 31.239999771118164)"></path></g> <!----> <!----> <!----> <!----> <!----> <!----> <!----></g></g> <!----></g></g><defs v-gra="od"></defs></svg>